HIERARCHY
ROOT Hips
{
	OFFSET 0.000000 0.000000 0.000000
	CHANNELS 6 Xposition Yposition Zposition Zrotation Yrotation Xrotation 
	JOINT LHipJoint
	{
		OFFSET 0.000000 0.000000 0.000000
		CHANNELS 3 Zrotation Yrotation Xrotation
		JOINT LeftUpLeg
		{
			OFFSET 1.363060 -1.794630 0.839290
			CHANNELS 3 Zrotation Yrotation Xrotation
			JOINT LeftLeg
			{
				OFFSET 2.448110 -6.726130 0.000000
				CHANNELS 3 Zrotation Yrotation Xrotation
				JOINT LeftFoot
				{
					OFFSET 2.562200 -7.039590 0.000000
					CHANNELS 3 Zrotation Yrotation Xrotation
					JOINT LeftToeBase
					{
						OFFSET 0.157640 -0.433110 2.322550
						CHANNELS 3 Zrotation Yrotation Xrotation
						End Site
						{
							OFFSET 0.000000 0.000000 0.000000
						}
					}
				}
			}
		}
	}
	JOINT RHipJoint
	{
		OFFSET 0.000000 0.000000 0.000000
		CHANNELS 3 Zrotation Yrotation Xrotation
		JOINT RightUpLeg
		{
			OFFSET -1.305520 -1.794630 0.839290
			CHANNELS 3 Zrotation Yrotation Xrotation
			JOINT RightLeg
			{
				OFFSET -2.542530 -6.985550 0.000000
				CHANNELS 3 Zrotation Yrotation Xrotation
				JOINT RightFoot
				{
					OFFSET -2.568260 -7.056230 0.000000
					CHANNELS 3 Zrotation Yrotation Xrotation
					JOINT RightToeBase
					{
						OFFSET -0.164730 -0.452590 2.363150
						CHANNELS 3 Zrotation Yrotation Xrotation
						End Site
						{
							OFFSET 0.000000 0.000000 0.000000
						}
					}
				}
			}
		}
	}
}
MOTION
Frames: 25
Frame Time: 0.008333
4.491043 17.267323 2.170630 -117.634580 -78.923949 159.201725 -9.577797 -2.239737 -0.886824 -7.263555 -1.159973 -48.224122 -2.317472 -1.249507 10.018250 1.133388 4.771857 -5.076433 0.603900 -0.000001 -33.225400 6.069584 -0.331227 12.981132 -1.093056 23.085786 -109.614956 7.624254 4.347826 -8.224042 0.247645 -4.559189 14.003044 -4.296500 0.000000 -77.127600
4.489496 17.269683 2.180390 -118.753908 -78.650918 160.072534 -9.550203 -2.185145 -0.946551 -7.423957 -0.813509 -47.934312 -2.346892 -1.242584 9.948968 1.122312 4.693078 -5.172475 0.581500 0.000000 -33.120799 6.180196 -0.350568 12.757099 -0.725307 23.070402 -108.338679 7.362337 3.663233 -6.074495 0.294556 -4.887426 16.297769 -4.610600 0.000000 -75.508800
4.483546 17.272347 2.190452 -119.454272 -78.494866 160.462243 -9.553419 -2.136750 -0.958121 -7.584500 -0.524918 -47.558839 -2.375491 -1.248336 9.801685 1.103963 4.590275 -5.236311 0.560900 0.000000 -33.022301 6.259753 -0.350565 12.487808 -0.411550 22.801662 -106.619977 7.086908 3.102962 -4.517636 0.478517 -4.523531 18.580871 -4.521000 -0.000000 -73.774200
4.474554 17.275574 2.199465 -119.918441 -78.442551 160.555484 -9.571558 -2.085890 -0.934998 -7.756483 -0.302033 -47.080483 -2.402320 -1.265890 9.564936 1.082556 4.488317 -5.262174 0.544600 -0.000000 -32.918100 6.312609 -0.317251 12.179442 -0.206407 22.312973 -104.488705 6.811432 2.683791 -3.549309 0.751106 -3.538893 20.589145 -4.008400 -0.000000 -72.312399
4.461187 17.278283 2.207272 -120.065954 -78.501913 160.318757 -9.605223 -2.032318 -0.864214 -7.927959 -0.167349 -46.579056 -2.427792 -1.293995 9.278707 1.057888 4.378076 -5.260740 0.531500 0.000000 -32.809900 6.344060 -0.269541 11.873575 -0.170729 21.644496 -102.066034 6.548577 2.411068 -3.122955 1.049771 -2.144023 22.107287 -3.180300 -0.000000 -71.249400
4.444227 17.280651 2.212839 -120.001513 -78.663918 159.858831 -9.644196 -1.971002 -0.756996 -8.106319 -0.127560 -46.041624 -2.451044 -1.330711 8.945162 1.032975 4.277124 -5.230565 0.522900 -0.000000 -32.695100 6.361846 -0.203287 11.575202 -0.344127 20.846229 -99.406005 6.286905 2.266448 -3.138370 1.323836 -0.585965 23.033430 -2.203300 -0.000001 -70.716000
4.423927 17.282652 2.215948 -119.727811 -78.924203 159.183220 -9.685913 -1.902268 -0.617987 -8.290034 -0.183153 -45.480825 -2.472127 -1.373347 8.586429 1.008032 4.183988 -5.178357 0.517700 -0.000000 -32.574700 6.373127 -0.127460 11.293822 -0.732673 19.971217 -96.572862 6.016415 2.224123 -3.477187 1.536156 0.875917 23.340196 -1.270201 0.000000 -70.674300
4.400515 17.284307 2.216361 -119.266170 -79.274928 158.314830 -9.727036 -1.825660 -0.454366 -8.480408 -0.331203 -44.895033 -2.490944 -1.419558 8.216356 0.983806 4.101660 -5.108701 0.515400 0.000000 -32.451400 6.386166 -0.048802 11.032602 -1.324326 19.072008 -93.616995 5.724037 2.253529 -4.013045 1.662088 2.011417 23.071471 -0.549500 0.000000 -71.032700
4.374638 17.285854 2.213730 -118.682550 -79.702928 157.312812 -9.762082 -1.739128 -0.274759 -8.682790 -0.566083 -44.273101 -2.507409 -1.467425 7.839180 0.961936 4.039298 -5.024007 0.516400 0.000000 -32.328100 6.410005 0.029130 10.789416 -2.087314 18.199270 -90.584392 5.399517 2.321599 -4.610903 1.689383 2.664551 22.314840 -0.143000 0.000000 -71.648200
4.345928 17.287028 2.209016 -117.857276 -80.196990 156.067900 -9.798629 -1.650085 -0.081070 -8.886254 -0.861670 -43.650056 -2.523297 -1.513505 7.494628 0.938538 3.968184 -4.940474 0.516400 0.000001 -32.211300 6.444257 0.085129 10.572348 -2.950842 17.399777 -87.533067 5.046731 2.403124 -5.162614 1.614647 2.750265 21.194333 -0.085100 -0.000000 -72.335500
4.316070 17.288650 2.200372 -117.174759 -80.725160 154.938292 -9.812617 -1.540638 0.112489 -9.116273 -1.230200 -42.942296 -2.535361 -1.560709 7.111774 0.924082 3.959213 -4.834515 0.523600 -0.000000 -32.098900 6.506590 0.143611 10.353084 -3.837440 16.703145 -84.493961 4.667821 2.461042 -5.496824 1.452977 2.354591 19.800258 -0.295000 0.000000 -72.982900
4.284012 17.290081 2.190127 -116.343244 -81.275653 153.659518 -9.825224 -1.428176 0.312626 -9.344109 -1.624273 -42.240629 -2.547148 -1.604428 6.765755 0.909502 3.946931 -4.736262 0.529700 0.000000 -32.001200 6.582913 0.170840 10.151487 -4.657753 16.131343 -81.537705 4.281074 2.489693 -5.577529 1.210387 1.504305 18.287668 -0.721800 -0.000000 -73.408600
4.250396 17.291570 2.178230 -115.504960 -81.821507 152.368997 -9.830945 -1.308611 0.515479 -9.571835 -2.029939 -41.531470 -2.557874 -1.645563 6.436605 0.897750 3.949832 -4.641766 0.536800 -0.000001 -31.919000 6.674876 0.174071 9.955179 -5.331024 15.682763 -78.699317 3.900994 2.475543 -5.334895 0.908280 0.344761 16.762217 -1.260100 -0.000000 -73.527499
4.215261 17.293133 2.165334 -114.686731 -82.340663 151.100204 -9.832860 -1.183958 0.721638 -9.791662 -2.423540 -40.832020 -2.567844 -1.683946 6.129374 0.888287 3.962165 -4.555989 0.543900 -0.000000 -31.854000 6.777776 0.152942 9.760087 -5.794837 15.341667 -76.006923 3.543419 2.415834 -4.757467 0.569484 -0.987617 15.324260 -1.828600 0.000000 -73.275400
4.179054 17.294912 2.151879 -113.977101 -82.813381 149.943276 -9.830684 -1.054518 0.932609 -9.993852 -2.796573 -40.146158 -2.575279 -1.720689 5.832545 0.883249 3.996662 -4.476910 0.552700 -0.000000 -31.807400 6.889013 0.113713 9.559267 -6.019490 15.081624 -73.469038 3.219830 2.311920 -3.866988 0.219228 -2.360785 14.046803 -2.367401 0.000000 -72.627500
4.141631 17.296777 2.139059 -113.285317 -83.226473 148.816647 -9.834643 -0.927013 1.149732 -10.168447 -3.114169 -39.514590 -2.582558 -1.753910 5.578057 0.877821 4.018137 -4.419424 0.558399 0.000000 -31.780499 6.998200 0.050766 9.356213 -5.989037 14.876001 -71.086813 2.942207 2.172794 -2.728899 -0.118917 -3.673325 12.974723 -2.845100 0.000000 -71.584000
4.103972 17.299259 2.126137 -112.962215 -83.564395 148.058505 -9.830242 -0.792505 1.371908 -10.314396 -3.405131 -38.882073 -2.583673 -1.788006 5.302295 0.881810 4.093585 -4.362383 0.569400 0.000000 -31.759400 7.115386 -0.012461 9.130924 -5.713406 14.682118 -68.828674 2.717219 1.999907 -1.384148 -0.413053 -4.781059 12.100393 -3.213800 0.000000 -70.263700
4.065716 17.302004 2.114528 -112.766951 -83.825436 147.444659 -9.833435 -0.662077 1.600272 -10.419696 -3.631475 -38.311441 -2.582534 -1.819460 5.061823 0.886938 4.164070 -4.327832 0.578100 -0.000000 -31.751100 7.225871 -0.090876 8.899014 -5.222596 14.487146 -66.686310 2.548427 1.809970 0.060046 -0.652760 -5.659132 11.407462 -3.479800 0.000000 -68.729799
4.027270 17.305133 2.104197 -112.753717 -84.006951 147.028782 -9.842884 -0.535490 1.832311 -10.483484 -3.793654 -37.798103 -2.578384 -1.848510 4.851320 0.894051 4.235165 -4.313919 0.585100 -0.000000 -31.750300 7.329441 -0.180100 8.660083 -4.552289 14.272278 -64.634184 2.435971 1.612765 1.529563 -0.826744 -6.262746 10.846747 -3.632300 0.000000 -67.127101
3.989378 17.308916 2.094684 -113.083032 -84.110017 146.959679 -9.851605 -0.409653 2.064232 -10.508948 -3.911204 -37.306447 -2.568377 -1.876833 4.640795 0.907556 4.337951 -4.310762 0.593900 -0.000000 -31.749800 7.431831 -0.269818 8.405640 -3.733390 14.009775 -62.637909 2.379206 1.414720 2.968589 -0.926184 -6.550195 10.359922 -3.657100 0.000000 -65.639700
3.952015 17.313091 2.086250 -113.595234 -84.142203 147.087269 -9.866035 -0.289218 2.292090 -10.498764 -3.966913 -36.862858 -2.555650 -1.902136 4.460797 0.922419 4.438238 -4.327606 0.600400 -0.000000 -31.752500 7.526482 -0.367040 8.148501 -2.813736 13.704180 -60.687350 2.370621 1.228554 4.305140 -0.962294 -6.571456 9.899442 -3.577000 0.000000 -64.351900
3.915555 17.317641 2.078503 -114.265080 -84.114040 147.383395 -9.884964 -0.174258 2.512368 -10.460373 -3.966773 -36.462041 -2.540953 -1.924060 4.312431 0.938161 4.533907 -4.363268 0.604300 -0.000000 -31.757000 7.613885 -0.469869 7.892131 -1.831813 13.350072 -58.768868 2.402715 1.061894 5.493711 -0.945670 -6.367995 9.428566 -3.410800 -0.000000 -63.353100
3.880505 17.322579 2.071017 -115.148719 -84.035501 147.892376 -9.904299 -0.063251 2.718844 -10.405165 -3.921733 -36.072227 -2.523988 -1.943010 4.179144 0.956072 4.636603 -4.411124 0.607000 -0.000000 -31.765900 7.698048 -0.571445 7.631397 -0.817930 12.934746 -56.857608 2.468013 0.919113 6.504793 -0.886547 -5.978923 8.926670 -3.176499 0.000000 -62.714300
3.846793 17.327601 2.063476 -116.144025 -83.921507 148.519483 -9.925048 0.043215 2.909840 -10.344609 -3.830977 -35.707926 -2.507906 -1.957930 4.077485 0.973137 4.726774 -4.474539 0.606299 -0.000000 -31.777300 7.777366 -0.673296 7.376957 0.184878 12.469981 -54.960747 2.554678 0.806342 7.312688 -0.804518 -5.489945 8.390610 -2.911800 -0.000000 -62.416600
3.814728 17.332551 2.055528 -117.254109 -83.785202 149.262949 -9.944605 0.146244 3.083134 -10.290110 -3.705588 -35.357537 -2.493604 -1.968943 4.001970 0.989412 4.807013 -4.549336 0.602800 0.000000 -31.791800 7.854017 -0.771432 7.130296 1.144192 11.959319 -53.076726 2.652599 0.725508 7.909263 -0.714003 -4.965251 7.830006 -2.643700 -0.000001 -62.434400
